<svg width="333" height="470" viewBox="0 0 333 470" fill="none" xmlns="http://www.w3.org/2000/svg">
<path d="M84.7508 300.477C80.259 304.389 76.491 307.893 72.5003 311.12C52.8996 326.955 23.9626 317.702 18.8397 293.82C16.668 283.696 18.7655 273.776 22.5334 264.356C37.6052 226.53 64.8902 200.793 102.031 184.995C103.906 184.198 105.818 183.53 107.73 182.863C109.623 182.195 111.553 181.602 113.873 180.842C109.846 177.541 106.282 174.259 102.31 171.607C101.01 170.736 98.5233 171.125 96.7599 171.607C80.5559 176.076 64.3891 180.638 48.2408 185.329C44.5656 186.404 41.7814 186.033 38.7188 183.419C27.1923 173.536 15.4059 163.95 3.73082 154.215C2.50577 153.195 1.4849 151.934 0 150.414C22.6076 141.606 44.8626 132.928 67.3218 124.176C60.0086 91.2081 65.4471 61.2622 87.4236 35.1732C103.423 16.2415 123.878 5.06049 148.249 1.24078C197.585 -6.47282 243.877 22.4346 257.835 69.699C271.7 116.667 251.765 169.939 198.457 191.8C204.23 199.217 209.353 206.986 217.297 212.122C222.16 215.256 227.227 214.83 232.332 212.011C236.192 209.879 240.406 208.34 244.341 206.319C245.547 205.707 246.568 204.446 247.292 203.241C256.814 187.776 266.41 172.349 275.709 156.755C280.238 149.171 286.345 145.203 295.366 145.63C301.862 145.945 308.396 145.648 314.911 145.741C328.405 145.926 337.091 159.017 331.04 171.181C326.307 180.73 320.126 189.575 314.539 198.698C312.702 201.683 310.66 204.557 308.711 207.487C327.291 234.763 304.553 271.551 274.744 271.421C272.016 278.856 264.869 281.489 259.023 285.309C248.257 292.299 235.988 294.487 222.735 294.951C222.735 301.218 223.218 307.467 222.605 313.586C221.9 320.576 224.257 325.286 229.473 330.014C244.638 343.773 259.282 358.106 274.039 372.328C276.47 374.664 278.92 375.721 282.317 375.554C288.015 375.258 293.732 375.35 299.431 375.48C310.679 375.74 320.609 382.897 323.987 392.984C327.736 404.165 324.878 414.845 315.338 422.003C300.154 433.369 284.619 444.272 269.25 455.398C265.519 458.086 261.9 460.96 258.095 463.538C251.895 467.747 247.162 467.19 241.445 462.629C221.232 446.479 200.907 430.44 180.564 414.438C175.46 410.414 170.04 406.78 164.898 402.793C163.079 401.384 161.817 401.421 159.924 402.682C148.1 410.581 136.166 418.313 123.989 426.305C125.53 428.196 127.182 430.087 128.667 432.108C137.094 443.605 135.275 458.958 124.212 466.3C121.224 468.284 117.233 469.49 113.614 469.712C105.502 470.213 97.3353 469.916 89.1869 469.879C83.3216 469.86 78.7926 466.523 74.8576 462.907C58.0968 447.461 41.5587 431.775 25.0948 416.032C22.0879 413.158 19.5079 409.709 17.2249 406.205C12.7516 399.326 13.8838 393.689 20.5288 389.035C39.5355 375.74 58.5237 362.426 77.6789 349.354C80.9457 347.129 82.2821 344.83 82.4306 340.862C82.9318 327.604 83.9155 314.383 84.7508 300.495V300.477ZM165.697 261.074C169.242 263.095 171.748 264.653 174.383 266.006C200.258 279.338 226.243 281.879 252.266 266.488C253.547 265.728 254.828 263.614 254.754 262.205C254.457 257.088 254.011 251.896 252.842 246.908C251.208 239.954 248.721 233.224 243.988 227.513C242.485 228.273 241.297 228.903 240.109 229.515C230.494 234.355 220.619 235.56 210.838 230.405C206.216 227.976 201.575 225.046 197.919 221.375C191.033 214.477 184.815 206.931 178.448 199.551C176.833 197.697 175.404 196.769 172.676 196.899C166.996 197.196 161.279 196.584 155.599 196.677C146.671 196.825 137.558 196.176 128.852 197.752C108.008 201.516 89.7438 211.158 73.9481 225.287C58.004 239.547 45.6051 256.235 39.5912 277.095C39.0715 278.912 38.5332 280.748 38.2362 282.602C37.1226 289.611 39.5541 295.452 44.9183 298.344C50.895 301.552 56.0736 299.03 60.6397 295.34C66.9691 290.241 72.9458 284.697 79.0896 279.375C88.76 270.976 99.5998 264.56 111.015 260.332C109.252 269.604 106.746 278.893 105.836 288.331C103.702 310.322 102.365 332.388 100.528 354.416C100.398 355.992 99.3214 357.995 98.0407 358.922C88.1661 366.061 78.143 373.014 68.157 379.986C58.0968 387.013 48.018 393.985 37.698 401.18C54.83 417.33 71.5723 433.184 88.4445 448.871C89.8923 450.206 92.2124 451.096 94.217 451.263C99.0801 451.67 103.98 451.578 108.862 451.578C113.614 451.578 115.544 449.371 113.224 445.273C111.052 441.472 107.21 438.617 104.073 435.372C103.275 434.556 101.976 433.963 101.642 433.017C100.287 429.142 99.21 425.155 97.9664 420.964C118.347 407.354 138.987 393.615 159.571 379.782C162.04 378.132 163.748 378.985 165.715 380.431C178.058 389.498 190.494 398.398 202.745 407.595C218.856 419.704 234.819 432.016 251.041 444.402C267.969 432.09 285.305 419.518 302.567 406.854C304.888 405.148 306.057 402.774 304.869 399.715C303.718 396.748 301.769 394.95 298.521 394.95C290.781 394.95 283.022 394.764 275.301 395.098C271.255 395.283 268.415 393.856 265.612 391.185C246.011 372.439 226.355 353.711 206.606 335.132C203.988 332.666 202.912 330.052 202.949 326.584C203.06 316.275 202.93 305.965 203.116 295.656C203.172 293.023 202.337 291.706 199.849 290.964C184.462 286.292 173.455 276.483 165.789 261.111L165.697 261.074ZM228.545 53.1778C203.543 17.1686 158.606 10.308 124.917 29.1655C87.2937 50.2295 75.9156 92.9696 89.2055 125.048C131.061 114.646 171.154 98.6806 212.322 84.7368C210.838 78.1172 209.65 71.887 207.998 65.7865C207.014 62.1893 208.183 60.6503 211.524 59.5378C217.148 57.665 222.643 55.4029 228.545 53.1778ZM36.4729 156.384C36.4358 156.922 36.3801 157.441 36.343 157.979C39.7768 160.575 43.0807 163.356 46.6816 165.692C47.8881 166.49 49.9855 166.749 51.3776 166.304C66.7464 161.483 82.2636 157.033 97.2611 151.267C104.017 148.671 107.507 149.95 112.203 154.956C128.871 172.739 149.474 181.509 174.031 177.634C207.441 172.368 229.362 153.195 239.496 120.913C242.132 112.495 242.614 103.78 241.724 94.7682C240.22 95.2503 239.181 95.547 238.16 95.8993C213.492 104.521 188.898 113.403 164.1 121.692C146.783 127.477 129.335 132.947 111.702 137.657C86.7368 144.332 61.5492 150.173 36.4544 156.384H36.4729ZM312.219 165.192C307.041 165.192 302.605 165.359 298.168 165.136C295.329 164.988 293.714 166.212 292.322 168.455C282.521 184.198 272.628 199.885 262.883 215.664C262.308 216.61 262.401 218.482 262.958 219.521C264.851 223.174 267.097 226.66 269.51 230.739C283.746 208.878 297.816 187.294 312.219 165.173V165.192ZM291.969 220.392C285.769 228.291 279.644 236.098 272.888 244.738C273.203 246.37 273.779 249.392 274.336 252.341C289.352 252.174 301.881 231.128 291.969 220.411V220.392Z" fill="#C6C6C6"/>
</svg>
