<?xml version="1.0" standalone="no"?>
<!DOCTYPE svg PUBLIC "-//W3C//DTD SVG 20010904//EN"
 "http://www.w3.org/TR/2001/REC-SVG-20010904/DTD/svg10.dtd">
<svg version="1.0" xmlns="http://www.w3.org/2000/svg"
 width="260.000000pt" height="260.000000pt" viewBox="0 0 260.000000 260.000000"
 preserveAspectRatio="xMidYMid meet">
<metadata>
Created by potrace 1.14, written by Peter Selinger 2001-2017
</metadata>
<g transform="translate(0.000000,260.000000) scale(0.100000,-0.100000)"
fill="#000000" stroke="none">
<path d="M1162 2565 c-180 -39 -340 -193 -394 -380 -18 -59 -22 -172 -10 -236
l9 -46 -36 -13 c-20 -7 -49 -18 -66 -25 -25 -11 -141 -57 -243 -96 -27 -10
-26 -11 53 -74 28 -22 52 -43 55 -47 17 -22 98 -78 114 -78 10 0 73 16 140 35
66 19 132 36 146 38 23 4 80 -27 80 -44 0 -3 -20 -14 -46 -24 -198 -76 -370
-248 -446 -448 -34 -89 -22 -180 30 -230 57 -55 142 -68 212 -32 19 10 37 21
40 24 3 3 17 17 32 30 l27 24 -6 -119 c-3 -66 -10 -124 -15 -131 -5 -6 -78
-59 -161 -116 -175 -121 -197 -140 -197 -168 0 -25 32 -73 75 -114 195 -184
269 -251 288 -262 29 -16 184 -17 217 0 33 16 70 73 70 107 0 15 -11 49 -25
75 -14 26 -24 48 -23 49 2 1 46 30 98 64 53 34 99 62 104 62 9 0 89 -61 226
-170 174 -140 231 -180 253 -180 30 1 356 239 384 280 42 61 23 144 -42 188
-26 19 -50 25 -107 27 -40 2 -78 3 -84 4 -6 1 -44 33 -85 72 -41 39 -97 93
-125 119 -88 83 -94 94 -94 171 0 38 1 69 3 69 1 1 20 3 42 6 87 11 190 59
233 109 12 14 27 23 31 20 16 -9 95 32 130 68 62 65 83 176 46 247 -14 28 -13
31 50 136 66 108 74 134 54 177 -18 39 -48 50 -141 53 -67 1 -93 -2 -115 -16
-18 -10 -62 -71 -116 -162 -86 -141 -90 -146 -145 -172 -68 -33 -92 -28 -147
31 -59 62 -60 68 -12 89 96 44 191 138 243 242 68 136 76 295 24 436 -95 253
-355 390 -628 331z m248 -106 c69 -23 128 -59 180 -110 28 -28 48 -54 43 -58
-4 -4 -30 -16 -57 -26 l-48 -17 7 -42 c16 -87 16 -87 -55 -113 -135 -49 -418
-145 -485 -164 -107 -31 -113 -31 -119 -12 -47 167 0 335 124 447 49 44 147
93 211 105 54 10 152 5 199 -10z m304 -455 c-13 -222 -200 -393 -431 -394 -86
0 -161 30 -239 96 -35 30 -72 54 -82 54 -10 0 -79 -20 -152 -44 -74 -24 -141
-41 -150 -37 -25 10 -64 40 -59 45 2 3 106 30 229 61 273 68 455 125 775 241
50 18 95 33 101 34 7 0 10 -20 8 -56z m376 -329 c0 -3 -50 -82 -112 -177
l-112 -171 -18 23 c-10 12 -18 30 -18 39 0 15 46 95 143 249 25 39 30 42 72
42 25 0 45 -2 45 -5z m-716 -189 c11 -12 44 -48 73 -79 85 -91 162 -117 247
-82 l36 15 20 -40 c11 -22 24 -67 28 -100 8 -56 7 -61 -14 -74 -48 -32 -138
-55 -204 -52 -83 4 -108 10 -186 46 -35 16 -64 26 -64 23 0 -9 51 -76 70 -91
8 -7 38 -24 65 -38 28 -15 52 -28 55 -31 2 -2 4 -50 5 -107 l0 -104 119 -114
c65 -62 146 -139 179 -170 l61 -57 90 -3 c70 -2 91 -6 100 -20 8 -13 6 -22 -9
-38 -15 -17 -230 -178 -270 -202 -7 -4 -45 18 -91 53 -43 34 -133 102 -199
151 -66 49 -127 94 -135 101 -8 7 -27 20 -42 30 l-28 17 -167 -111 c-93 -61
-172 -115 -176 -119 -12 -10 12 -60 51 -103 18 -21 31 -44 29 -50 -4 -13 -78
-22 -111 -13 -12 3 -48 31 -81 63 -123 116 -215 205 -215 208 0 2 72 54 160
115 88 61 164 118 169 128 5 9 11 58 15 107 14 202 23 286 36 354 5 30 9 56 7
57 -9 9 -115 -56 -174 -106 -99 -83 -125 -100 -155 -100 -102 0 -55 205 80
347 149 156 274 210 486 211 110 1 120 -1 140 -22z m627 -126 c9 -74 -19 -125
-83 -149 -46 -17 -41 24 12 96 42 57 68 77 71 53z"/>
</g>
</svg>
